<svg width="234" height="273" viewBox="0 0 234 273" fill="none" xmlns="http://www.w3.org/2000/svg">
<g opacity="0.2">
<path d="M101.751 245.772L117.151 236.973L131.67 244.892L116.711 254.132L101.751 245.772Z" fill="url(#paint0_linear_307_37)"/>
<path d="M101.751 245.772V263.372L116.711 272.171V254.132L101.751 245.772Z" fill="url(#paint1_linear_307_37)"/>
<path d="M116.711 254.132L131.67 244.892V263.02L116.711 272.171V254.132Z" fill="url(#paint2_linear_307_37)"/>
</g>
<g opacity="0.4">
<path d="M101.751 219.966L117.151 211.166L131.67 219.086L116.711 228.326L101.751 219.966Z" fill="url(#paint3_linear_307_37)"/>
<path d="M101.751 219.966V237.566L116.711 246.365V228.326L101.751 219.966Z" fill="url(#paint4_linear_307_37)"/>
<path d="M116.711 228.326L131.67 219.086V237.214L116.711 246.365V228.326Z" fill="url(#paint5_linear_307_37)"/>
</g>
<g opacity="0.6">
<path d="M101.751 191.948L117.151 183.148L131.67 191.068L116.711 200.307L101.751 191.948Z" fill="url(#paint6_linear_307_37)"/>
<path d="M101.751 191.948V209.547L116.711 218.347V200.307L101.751 191.948Z" fill="url(#paint7_linear_307_37)"/>
<path d="M116.711 200.307L131.67 191.068V209.195L116.711 218.347V200.307Z" fill="url(#paint8_linear_307_37)"/>
</g>
<g opacity="0.8">
<path d="M101.751 166.141L117.151 157.341L131.67 165.261L116.711 174.501L101.751 166.141Z" fill="url(#paint9_linear_307_37)"/>
<path d="M101.751 166.141V183.74L116.711 192.54V174.501L101.751 166.141Z" fill="url(#paint10_linear_307_37)"/>
<path d="M116.711 174.501L131.67 165.261V183.388L116.711 192.54V174.501Z" fill="url(#paint11_linear_307_37)"/>
</g>
<path fill-rule="evenodd" clip-rule="evenodd" d="M0.0742623 110.583L0.0742623 98.3552C0.0742623 98.3552 116.451 46.115 117.32 46.6118L233.14 99.5315V110.851C233.14 110.851 233.14 111.98 232.011 112.544L118.252 178.148C117.382 178.645 116.016 178.645 115.147 178.148L0.75737 112.259C-0.11204 111.763 0.0742623 110.583 0.0742623 110.583Z" fill="#BFC0C0"/>
<path fill-rule="evenodd" clip-rule="evenodd" d="M0.62182 97.5554L115.266 32.4618C116.135 31.965 117.501 31.965 118.371 32.4618L232.56 98.6841C233.43 99.1809 233.43 99.9882 232.56 100.485L119.365 165.544C118.495 166.04 117.129 166.04 116.259 165.544L0.68392 99.3563C-0.185489 98.8595 -0.24759 98.0522 0.62182 97.5554Z" fill="#DDDDDD"/>
<path fill-rule="evenodd" clip-rule="evenodd" d="M62.9671 97.1065L115.596 66.8269C115.988 66.591 116.616 66.591 117.086 66.8269L170.029 97.3425C170.421 97.5784 170.421 97.9717 170.029 98.2076L117.478 128.409C117.086 128.645 116.459 128.645 115.988 128.409L62.9671 97.893C62.5749 97.6571 62.5749 97.3425 62.9671 97.1065Z" fill="#BFC0C0"/>
<path fill-rule="evenodd" clip-rule="evenodd" d="M73.2584 103.228L115.771 79.3158C116.121 79.1407 116.735 79.1407 117.086 79.3158L160.475 103.053C160.825 103.228 160.825 103.578 160.475 103.841L117.524 128.454C117.173 128.629 116.56 128.629 116.209 128.454L73.2584 104.016C72.9078 103.754 72.9078 103.403 73.2584 103.228Z" fill="black"/>
<path d="M135.104 27.793L159.241 14L182 26.4137L158.552 40.8964L135.104 27.793Z" fill="white"/>
<path d="M135.104 27.7933V74.6896L158.552 88.4826V40.8967L135.104 27.7933Z" fill="#F7F7F7"/>
<path d="M158.552 40.8965L182 26.4138V74.1377L158.552 88.4825V40.8965Z" fill="#E9E9EB"/>
<path fill-rule="evenodd" clip-rule="evenodd" d="M145.881 40.5359C147.53 40.0409 149.593 41.3607 150.5 43.5879C151.407 45.8151 150.747 47.9598 149.098 48.5372C147.448 49.0322 145.386 47.7123 144.478 45.4852C143.571 43.258 144.231 41.1133 145.881 40.5359Z" fill="#F2FF26"/>
<path fill-rule="evenodd" clip-rule="evenodd" d="M146.71 40.5354C147.863 40.5354 150.748 43.5678 150.748 46.304C150.748 46.6949 149.017 48.6114 149.017 48.6114L128.5 83C128.5 83 95.019 86.4995 85.7097 70.0823C78.1643 56.7921 83.8479 44.2837 87.6696 44.6746L144.979 41.1123C144.979 41.1123 145.556 40.5354 146.71 40.5354Z" fill="url(#paint12_linear_307_37)"/>
<g opacity="0.9">
<path d="M101.751 108.63L117.151 99.8301L131.67 107.75L116.711 116.989L101.751 108.63Z" fill="url(#paint13_linear_307_37)" fill-opacity="0.8"/>
<path d="M101.751 108.63V120.33L116.71 129.13V116.989L101.751 108.63Z" fill="url(#paint14_linear_307_37)" fill-opacity="0.8"/>
<path d="M116.711 116.989L131.67 107.75V119.979L116.711 129.13V116.989Z" fill="url(#paint15_linear_307_37)" fill-opacity="0.8"/>
</g>
<path d="M101.751 82.823L117.15 74.0233L131.67 81.943L116.71 91.1827L101.751 82.823Z" fill="url(#paint16_linear_307_37)" fill-opacity="0.8"/>
<path d="M101.751 82.8231V100.422L116.71 109.222V91.1828L101.751 82.8231Z" fill="url(#paint17_linear_307_37)" fill-opacity="0.8"/>
<path d="M116.71 91.1828L131.67 81.9432V100.071L116.71 109.222V91.1828Z" fill="url(#paint18_linear_307_37)" fill-opacity="0.8"/>
<path d="M101.763 54.8045L117.163 46.0048L131.682 53.9245L116.723 63.1642L101.763 54.8045Z" fill="#F67C7C"/>
<path d="M101.763 54.8046V72.4039L116.723 81.2036V63.1643L101.763 54.8046Z" fill="#DE2424"/>
<path d="M116.723 63.1643L131.682 53.9247V72.052L116.723 81.2037V63.1643Z" fill="#F32626"/>
<path d="M102 31.7997L117.399 23L131.919 30.9197L116.959 40.1594L102 31.7997Z" fill="url(#paint19_linear_307_37)" fill-opacity="0.8"/>
<path d="M102 31.7997V49.3991L116.959 58.1988V40.1594L102 31.7997Z" fill="url(#paint20_linear_307_37)" fill-opacity="0.8"/>
<path d="M116.959 40.1595L131.919 30.9199V49.0472L116.959 58.1989V40.1595Z" fill="url(#paint21_linear_307_37)" fill-opacity="0.8"/>
<path d="M103 8.79968L118.399 0L132.919 7.91971L117.959 17.1594L103 8.79968Z" fill="url(#paint22_linear_307_37)" fill-opacity="0.8"/>
<path d="M103 8.79974V26.3991L117.959 35.1988V17.1594L103 8.79974Z" fill="url(#paint23_linear_307_37)" fill-opacity="0.8"/>
<path d="M117.959 17.1595L132.919 7.91986V26.0472L117.959 35.1989V17.1595Z" fill="url(#paint24_linear_307_37)" fill-opacity="0.8"/>
<path d="M163.12 64.5901C168.203 49.9029 168.253 50.2891 170.762 60.1778C173.37 69.9172 177.726 56.8943 177.726 56.1569" stroke="black" stroke-opacity="0.2" stroke-width="0.5"/>
<path d="M164.317 63.8988C169.401 49.2116 169.45 49.5978 171.959 59.4865C174.567 69.2259 178.924 56.203 178.924 55.4656" stroke="black" stroke-opacity="0.5" stroke-width="0.5"/>
<path d="M163 64.5253C163.287 64.3594 174.667 57.7895 180.321 54.5253" stroke="black" stroke-width="0.5"/>
<path d="M165.514 63.2076C170.598 48.5204 170.647 48.9066 173.156 58.7953C175.764 68.5347 180.121 55.5118 180.121 54.7744" stroke="#F2FF26" stroke-width="0.5"/>
<defs>
<linearGradient id="paint0_linear_307_37" x1="116.711" y1="236.973" x2="116.711" y2="254.135" gradientUnits="userSpaceOnUse">
<stop stop-color="#E8E8E8"/>
<stop offset="1" stop-color="#727272"/>
</linearGradient>
<linearGradient id="paint1_linear_307_37" x1="109.231" y1="245.772" x2="109.231" y2="272.175" gradientUnits="userSpaceOnUse">
<stop stop-color="#E8E8E8"/>
<stop offset="1" stop-color="#727272"/>
</linearGradient>
<linearGradient id="paint2_linear_307_37" x1="124.191" y1="244.892" x2="124.191" y2="272.176" gradientUnits="userSpaceOnUse">
<stop stop-color="#E8E8E8"/>
<stop offset="1" stop-color="#727272"/>
</linearGradient>
<linearGradient id="paint3_linear_307_37" x1="116.711" y1="211.166" x2="116.711" y2="228.328" gradientUnits="userSpaceOnUse">
<stop stop-color="#E8E8E8"/>
<stop offset="1" stop-color="#727272"/>
</linearGradient>
<linearGradient id="paint4_linear_307_37" x1="109.231" y1="219.966" x2="109.231" y2="246.369" gradientUnits="userSpaceOnUse">
<stop stop-color="#E8E8E8"/>
<stop offset="1" stop-color="#727272"/>
</linearGradient>
<linearGradient id="paint5_linear_307_37" x1="124.191" y1="219.086" x2="124.191" y2="246.369" gradientUnits="userSpaceOnUse">
<stop stop-color="#E8E8E8"/>
<stop offset="1" stop-color="#727272"/>
</linearGradient>
<linearGradient id="paint6_linear_307_37" x1="116.711" y1="183.148" x2="116.711" y2="200.31" gradientUnits="userSpaceOnUse">
<stop stop-color="#E8E8E8"/>
<stop offset="1" stop-color="#727272"/>
</linearGradient>
<linearGradient id="paint7_linear_307_37" x1="109.231" y1="191.948" x2="109.231" y2="218.351" gradientUnits="userSpaceOnUse">
<stop stop-color="#E8E8E8"/>
<stop offset="1" stop-color="#727272"/>
</linearGradient>
<linearGradient id="paint8_linear_307_37" x1="124.191" y1="191.068" x2="124.191" y2="218.351" gradientUnits="userSpaceOnUse">
<stop stop-color="#E8E8E8"/>
<stop offset="1" stop-color="#727272"/>
</linearGradient>
<linearGradient id="paint9_linear_307_37" x1="116.711" y1="157.341" x2="116.711" y2="174.503" gradientUnits="userSpaceOnUse">
<stop stop-color="#E8E8E8"/>
<stop offset="1" stop-color="#727272"/>
</linearGradient>
<linearGradient id="paint10_linear_307_37" x1="109.231" y1="166.141" x2="109.231" y2="192.544" gradientUnits="userSpaceOnUse">
<stop stop-color="#E8E8E8"/>
<stop offset="1" stop-color="#727272"/>
</linearGradient>
<linearGradient id="paint11_linear_307_37" x1="124.191" y1="165.261" x2="124.191" y2="192.544" gradientUnits="userSpaceOnUse">
<stop stop-color="#E8E8E8"/>
<stop offset="1" stop-color="#727272"/>
</linearGradient>
<linearGradient id="paint12_linear_307_37" x1="151.175" y1="40.2067" x2="94.4043" y2="69.1614" gradientUnits="userSpaceOnUse">
<stop stop-color="#F2FF26" stop-opacity="0.6"/>
<stop offset="1" stop-color="#F2FF26" stop-opacity="0"/>
</linearGradient>
<linearGradient id="paint13_linear_307_37" x1="116.711" y1="99.8301" x2="116.711" y2="116.992" gradientUnits="userSpaceOnUse">
<stop stop-color="#E8E8E8"/>
<stop offset="1" stop-color="#727272"/>
</linearGradient>
<linearGradient id="paint14_linear_307_37" x1="109.231" y1="108.63" x2="109.231" y2="129.133" gradientUnits="userSpaceOnUse">
<stop stop-color="#E8E8E8"/>
<stop offset="1" stop-color="#727272"/>
</linearGradient>
<linearGradient id="paint15_linear_307_37" x1="124.191" y1="107.75" x2="124.191" y2="129.133" gradientUnits="userSpaceOnUse">
<stop stop-color="#E8E8E8"/>
<stop offset="1" stop-color="#727272"/>
</linearGradient>
<linearGradient id="paint16_linear_307_37" x1="116.711" y1="74.0233" x2="116.711" y2="91.1853" gradientUnits="userSpaceOnUse">
<stop stop-color="#E8E8E8"/>
<stop offset="1" stop-color="#727272"/>
</linearGradient>
<linearGradient id="paint17_linear_307_37" x1="109.231" y1="82.8231" x2="109.231" y2="109.226" gradientUnits="userSpaceOnUse">
<stop stop-color="#E8E8E8"/>
<stop offset="1" stop-color="#727272"/>
</linearGradient>
<linearGradient id="paint18_linear_307_37" x1="124.191" y1="81.9432" x2="124.191" y2="109.226" gradientUnits="userSpaceOnUse">
<stop stop-color="#E8E8E8"/>
<stop offset="1" stop-color="#727272"/>
</linearGradient>
<linearGradient id="paint19_linear_307_37" x1="116.96" y1="23" x2="116.96" y2="40.162" gradientUnits="userSpaceOnUse">
<stop stop-color="#E8E8E8"/>
<stop offset="1" stop-color="#727272"/>
</linearGradient>
<linearGradient id="paint20_linear_307_37" x1="109.48" y1="31.7997" x2="109.48" y2="58.2028" gradientUnits="userSpaceOnUse">
<stop stop-color="#E8E8E8"/>
<stop offset="1" stop-color="#727272"/>
</linearGradient>
<linearGradient id="paint21_linear_307_37" x1="124.44" y1="30.9199" x2="124.44" y2="58.203" gradientUnits="userSpaceOnUse">
<stop stop-color="#E8E8E8"/>
<stop offset="1" stop-color="#727272"/>
</linearGradient>
<linearGradient id="paint22_linear_307_37" x1="117.96" y1="0" x2="117.96" y2="17.162" gradientUnits="userSpaceOnUse">
<stop stop-color="#E8E8E8"/>
<stop offset="1" stop-color="#727272"/>
</linearGradient>
<linearGradient id="paint23_linear_307_37" x1="110.48" y1="8.79974" x2="110.48" y2="35.2028" gradientUnits="userSpaceOnUse">
<stop stop-color="#E8E8E8"/>
<stop offset="1" stop-color="#727272"/>
</linearGradient>
<linearGradient id="paint24_linear_307_37" x1="125.44" y1="7.91986" x2="125.44" y2="35.203" gradientUnits="userSpaceOnUse">
<stop stop-color="#E8E8E8"/>
<stop offset="1" stop-color="#727272"/>
</linearGradient>
</defs>
</svg>
