<svg width="400" height="335" viewBox="0 0 400 335" fill="none" xmlns="http://www.w3.org/2000/svg">
<path fill-rule="evenodd" clip-rule="evenodd" d="M0 256.351L133.521 179.219L267.691 256.351L133.521 334.13L0 256.351Z" fill="url(#paint0_linear_55_7141)"/>
<path fill-rule="evenodd" clip-rule="evenodd" d="M132.245 178.911L132.225 168.849C132.225 168.849 265.901 102.169 266.9 102.74L399.917 170.145V179.22C399.917 179.22 399.917 180.516 398.62 181.164L267.97 256.509C266.971 257.08 265.402 257.08 264.404 256.509L133.029 180.837C132.031 180.267 132.245 178.911 132.245 178.911Z" fill="#3F4658"/>
<path fill-rule="evenodd" clip-rule="evenodd" d="M132.874 167.552L264.54 92.7934C265.539 92.2228 267.108 92.2228 268.107 92.7934L399.251 168.849C400.25 169.419 400.25 170.346 399.251 170.917L269.248 245.636C268.249 246.206 266.68 246.206 265.682 245.636L132.945 169.621C131.947 169.05 131.875 168.123 132.874 167.552Z" fill="#777C88"/>
<path d="M237.227 164.062L264.45 148.107L291.673 163.264L264.45 179.219L237.227 164.062Z" fill="#282828" fill-opacity="0.12"/>
<path d="M242.413 12.963L264.45 -0.000244141L286.488 12.3148L264.45 25.2781L242.413 12.963Z" fill="#FBFFBD"/>
<path d="M242.413 12.9626V38.8891L264.45 51.8524V25.2777L242.413 12.9626Z" fill="#F2FF26"/>
<path d="M264.45 25.2779L286.488 12.3147V38.3708L264.45 51.8526V25.2779Z" fill="#F8FF92"/>
<defs>
<linearGradient id="paint0_linear_55_7141" x1="71.946" y1="294.592" x2="161.392" y2="139.682" gradientUnits="userSpaceOnUse">
<stop stop-color="white" stop-opacity="0"/>
<stop offset="0.64517" stop-color="#C4C4C4" stop-opacity="0.43"/>
<stop offset="1" stop-color="#C4C4C4" stop-opacity="0"/>
</linearGradient>
</defs>
</svg>
