<svg width="64" height="64" viewBox="0 0 2048 2048" fill="none" xmlns="http://www.w3.org/2000/svg">
<style>
    path { fill: black; }
    @media (prefers-color-scheme: dark) {
      path { fill: white; }
    }
  </style>
<path fill-rule="evenodd" clip-rule="evenodd" d="M858.55 1649.97L792.324 1974.43L866.973 1989.67L933.275 1664.84C962.927 1668.95 993.215 1671.08 1024 1671.08C1385.19 1671.08 1678 1378.27 1678 1017.08C1678 714.831 1472.97 460.472 1194.4 385.499L1258.14 73.2368L1183.49 58L1119.8 370.044C1088.53 365.454 1056.54 363.078 1024 363.078C662.806 363.078 370 655.883 370 1017.08C370 1321.11 577.465 1576.69 858.55 1649.97ZM962.067 1523.77C982.368 1526.23 1003.04 1527.49 1024 1527.49C1305.89 1527.49 1534.41 1298.97 1534.41 1017.08C1534.41 784.318 1378.61 587.947 1165.61 526.563L962.067 1523.77ZM1091.02 511.024L887.326 1508.99C671.798 1449.23 513.586 1251.63 513.586 1017.08C513.586 735.183 742.106 506.663 1024 506.663C1046.72 506.663 1069.09 508.147 1091.02 511.024Z" />
</svg>
