<svg width="2048" height="736" viewBox="0 0 2048 736" fill="none" xmlns="http://www.w3.org/2000/svg">
<path fill-rule="evenodd" clip-rule="evenodd" d="M382.661 546.576L364 638L389.475 643.2L408.226 551.334C415.135 552.12 422.161 552.523 429.28 552.523C531.055 552.523 613.561 470.018 613.561 368.243C613.561 284.668 557.925 214.087 481.669 191.516L499.695 103.2L474.221 98L456.274 185.926C447.463 184.633 438.45 183.963 429.28 183.963C327.505 183.963 245 266.468 245 368.243C245 453.912 303.458 525.928 382.661 546.576ZM418.078 503.066C421.772 503.369 425.508 503.523 429.28 503.523C503.993 503.523 564.561 442.956 564.561 368.243C564.561 308.39 525.691 257.616 471.817 239.786L418.078 503.066ZM446.453 234.042L392.482 498.458C335.652 482.431 294 430.201 294 368.243C294 293.53 354.567 232.963 429.28 232.963C435.097 232.963 440.829 233.33 446.453 234.042Z" fill="white"/>
<path d="M693.42 566.818V266.818H743.989V302.898H746.972C749.623 297.595 753.364 291.96 758.193 285.994C763.023 279.934 769.557 274.773 777.795 270.511C786.034 266.155 796.545 263.977 809.33 263.977C826.186 263.977 841.384 268.286 854.926 276.903C868.563 285.426 879.358 298.068 887.312 314.83C895.362 331.496 899.386 351.951 899.386 376.193C899.386 400.152 895.456 420.511 887.597 437.273C879.737 454.034 869.036 466.818 855.494 475.625C841.953 484.432 826.612 488.835 809.472 488.835C796.972 488.835 786.602 486.752 778.364 482.585C770.125 478.419 763.496 473.4 758.477 467.528C753.553 461.562 749.718 455.928 746.972 450.625H744.841V566.818H693.42ZM743.847 375.909C743.847 390.019 745.835 402.377 749.812 412.983C753.884 423.589 759.708 431.875 767.284 437.841C774.955 443.712 784.235 446.648 795.125 446.648C806.489 446.648 816.006 443.617 823.676 437.557C831.347 431.402 837.123 423.021 841.006 412.415C844.983 401.714 846.972 389.545 846.972 375.909C846.972 362.367 845.03 350.341 841.148 339.83C837.265 329.318 831.489 321.08 823.818 315.114C816.148 309.148 806.583 306.165 795.125 306.165C784.14 306.165 774.812 309.053 767.142 314.83C759.472 320.606 753.648 328.703 749.67 339.119C745.788 349.536 743.847 361.799 743.847 375.909ZM970.841 357.159V485H919.42V194.091H969.705V303.892H972.261C977.375 291.581 985.282 281.875 995.983 274.773C1006.78 267.576 1020.51 263.977 1037.18 263.977C1052.33 263.977 1065.54 267.15 1076.81 273.494C1088.08 279.839 1096.79 289.119 1102.94 301.335C1109.19 313.551 1112.32 328.466 1112.32 346.08V485H1060.9V354.034C1060.9 339.356 1057.11 327.945 1049.53 319.801C1042.05 311.562 1031.54 307.443 1018 307.443C1008.91 307.443 1000.77 309.432 993.568 313.409C986.466 317.292 980.879 322.926 976.807 330.312C972.83 337.699 970.841 346.648 970.841 357.159ZM1203.52 489.403C1189.69 489.403 1177.24 486.941 1166.16 482.017C1155.17 476.998 1146.46 469.612 1140.02 459.858C1133.68 450.104 1130.51 438.078 1130.51 423.778C1130.51 411.468 1132.78 401.288 1137.32 393.239C1141.87 385.189 1148.07 378.75 1155.93 373.92C1163.79 369.091 1172.65 365.445 1182.49 362.983C1192.44 360.426 1202.71 358.58 1213.32 357.443C1226.1 356.117 1236.47 354.934 1244.43 353.892C1252.38 352.756 1258.16 351.051 1261.76 348.778C1265.45 346.411 1267.3 342.765 1267.3 337.841V336.989C1267.3 326.288 1264.12 318.002 1257.78 312.131C1251.43 306.259 1242.3 303.324 1230.36 303.324C1217.77 303.324 1207.78 306.07 1200.39 311.562C1193.1 317.055 1188.18 323.542 1185.62 331.023L1137.61 324.205C1141.4 310.947 1147.65 299.867 1156.36 290.966C1165.07 281.97 1175.72 275.246 1188.32 270.795C1200.91 266.25 1214.83 263.977 1230.08 263.977C1240.59 263.977 1251.05 265.208 1261.47 267.67C1271.89 270.133 1281.41 274.205 1290.02 279.886C1298.64 285.473 1305.55 293.097 1310.76 302.756C1316.06 312.415 1318.72 324.489 1318.72 338.977V485H1269.28V455.028H1267.58C1264.45 461.089 1260.05 466.771 1254.37 472.074C1248.78 477.282 1241.73 481.496 1233.2 484.716C1224.78 487.841 1214.88 489.403 1203.52 489.403ZM1216.87 451.619C1227.19 451.619 1236.14 449.583 1243.72 445.511C1251.29 441.345 1257.12 435.852 1261.19 429.034C1265.35 422.216 1267.44 414.782 1267.44 406.733V381.023C1265.83 382.348 1263.08 383.58 1259.2 384.716C1255.41 385.852 1251.15 386.847 1246.41 387.699C1241.68 388.551 1236.99 389.309 1232.35 389.972C1227.71 390.634 1223.69 391.203 1220.28 391.676C1212.61 392.718 1205.74 394.422 1199.68 396.79C1193.62 399.157 1188.84 402.472 1185.34 406.733C1181.83 410.9 1180.08 416.297 1180.08 422.926C1180.08 432.396 1183.54 439.545 1190.45 444.375C1197.36 449.205 1206.17 451.619 1216.87 451.619ZM1518.86 324.489L1471.99 329.602C1470.66 324.867 1468.34 320.417 1465.03 316.25C1461.81 312.083 1457.45 308.722 1451.96 306.165C1446.47 303.608 1439.74 302.33 1431.79 302.33C1421.09 302.33 1412.09 304.65 1404.8 309.29C1397.6 313.93 1394.05 319.943 1394.15 327.33C1394.05 333.674 1396.37 338.835 1401.11 342.812C1405.94 346.79 1413.89 350.057 1424.97 352.614L1462.19 360.568C1482.83 365.019 1498.17 372.074 1508.21 381.733C1518.34 391.392 1523.46 404.034 1523.55 419.659C1523.46 433.39 1519.43 445.511 1511.48 456.023C1503.62 466.439 1492.68 474.583 1478.66 480.455C1464.65 486.326 1448.55 489.261 1430.37 489.261C1403.66 489.261 1382.17 483.674 1365.88 472.5C1349.59 461.231 1339.89 445.559 1336.76 425.483L1386.9 420.653C1389.18 430.502 1394.01 437.936 1401.39 442.955C1408.78 447.973 1418.39 450.483 1430.23 450.483C1442.44 450.483 1452.24 447.973 1459.63 442.955C1467.11 437.936 1470.85 431.733 1470.85 424.347C1470.85 418.097 1468.44 412.936 1463.61 408.864C1458.87 404.792 1451.49 401.667 1441.45 399.489L1404.23 391.676C1383.3 387.32 1367.82 379.981 1357.78 369.659C1347.75 359.242 1342.77 346.08 1342.87 330.17C1342.77 316.723 1346.42 305.076 1353.81 295.227C1361.29 285.284 1371.66 277.614 1384.91 272.216C1398.27 266.723 1413.66 263.977 1431.08 263.977C1456.65 263.977 1476.77 269.422 1491.45 280.312C1506.22 291.203 1515.36 305.928 1518.86 324.489ZM1638.54 489.261C1616.67 489.261 1597.78 484.716 1581.87 475.625C1566.05 466.439 1553.88 453.466 1545.36 436.705C1536.84 419.848 1532.58 400.009 1532.58 377.188C1532.58 354.744 1536.84 335.047 1545.36 318.097C1553.98 301.051 1566 287.794 1581.44 278.324C1596.88 268.759 1615.01 263.977 1635.84 263.977C1649.29 263.977 1661.98 266.155 1673.91 270.511C1685.94 274.773 1696.54 281.402 1705.73 290.398C1715.01 299.394 1722.3 310.852 1727.61 324.773C1732.91 338.598 1735.56 355.076 1735.56 374.205V389.972H1556.72V355.312H1686.27C1686.18 345.464 1684.04 336.705 1679.88 329.034C1675.71 321.269 1669.89 315.161 1662.41 310.71C1655.02 306.259 1646.4 304.034 1636.55 304.034C1626.04 304.034 1616.81 306.591 1608.86 311.705C1600.9 316.723 1594.7 323.352 1590.25 331.591C1585.89 339.735 1583.67 348.684 1583.57 358.438V388.693C1583.57 401.383 1585.89 412.273 1590.53 421.364C1595.17 430.36 1601.66 437.273 1609.99 442.102C1618.32 446.837 1628.08 449.205 1639.25 449.205C1646.73 449.205 1653.5 448.163 1659.57 446.08C1665.63 443.902 1670.88 440.729 1675.33 436.562C1679.78 432.396 1683.14 427.235 1685.42 421.08L1733.43 426.477C1730.4 439.167 1724.62 450.246 1716.1 459.716C1707.67 469.091 1696.88 476.383 1683.71 481.591C1670.55 486.705 1655.49 489.261 1638.54 489.261Z" fill="white"/>
</svg>
